<svg xmlns="http://www.w3.org/2000/svg" width="600" height="400">
<defs>
    <linearGradient id="legend_grad" x1="0%" y1="0%" x2="0%" y2="100%">
        <stop offset="0%" style="stop-color:#75a743" />
        <stop offset="100%" style="stop-color:#e8c170" />
    </linearGradient>
</defs><rect x='0' y='0' width='600' height='400' rx='10' ry='10' fill='#404040' /><path d="M213.33333333333334 5.0 h153.33333333333334 l15.0 15.0 l-15.0 15.0 h-153.33333333333334 l15.0 -15.0" fill="#e8c170" /><text x="213.33333333333334" y="20.0" dy="0.35em" font-size="10" text-anchor="end" fill="#ffffff">Series 1</text><text x="386.6666666666667" y="20.0" dy="0.35em" font-size="10" text-anchor="start" fill="#ffffff">Series 2</text><rect x="545.0" y="40" width="30" height="330" fill="url(#legend_grad)" /><text x="540.0" y="205.0" text-anchor="middle" font-size="10" transform="rotate(-90 540.0 205.0)" fill="#ffffff">Color Series</text><text x="580.0" y="40" dy="0.35em" text-anchor="start" font-size="10" fill="#ffffff">36</text><text x="580.0" y="370" dy="0.35em" text-anchor="start" font-size="10" fill="#ffffff">-24</text><path d="M101.81818181818181 238.0 v66.0 l15.0 -15.0 l15.0 15.0 v-66.0 l-15.0 -15.0" fill="#cdbb66" /><text x="116.81818181818181" y="304.0" dy="0.35em" text-anchor="middle" font-size="10" fill="#ffffff">10</text><text x="116.81818181818181" y="218.0" dy="0.35em" text-anchor="middle" font-size="10" fill="#ffffff">20</text><text x="116.81818181818181" y="263.5" dy="0.35em" text-anchor="middle" font-size="10" >-10</text><path d="M185.45454545454547 172.0 v66.0 l15.0 -15.0 l15.0 15.0 v-66.0 l-15.0 -15.0" fill="#e0bf6d" /><text x="200.45454545454547" y="238.0" dy="0.35em" text-anchor="middle" font-size="10" fill="#ffffff">20</text><text x="200.45454545454547" y="152.0" dy="0.35em" text-anchor="middle" font-size="10" fill="#ffffff">30</text><text x="200.45454545454547" y="197.5" dy="0.35em" text-anchor="middle" font-size="10" >-20</text><path d="M269.0909090909091 106.0 v66.0 l15.0 -15.0 l15.0 15.0 v-66.0 l-15.0 -15.0" fill="#80aa48" /><text x="284.0909090909091" y="172.0" dy="0.35em" text-anchor="middle" font-size="10" fill="#ffffff">30</text><text x="284.0909090909091" y="86.0" dy="0.35em" text-anchor="middle" font-size="10" fill="#ffffff">40</text><text x="284.0909090909091" y="131.5" dy="0.35em" text-anchor="middle" font-size="10" >30</text><path d="M352.72727272727275 106.0 v66.0 l15.0 15.0 l15.0 -15.0 v-66.0 l-15.0 15.0" fill="#94ae4f" /><text x="367.72727272727275" y="106.0" dy="0.35em" text-anchor="middle" font-size="10" fill="#ffffff">40</text><text x="367.72727272727275" y="192.0" dy="0.35em" text-anchor="middle" font-size="10" fill="#ffffff">30</text><text x="367.72727272727275" y="146.5" dy="0.35em" text-anchor="middle" font-size="10" >20</text><path d="M436.3636363636364 40.0 v198.0 l15.0 15.0 l15.0 -15.0 v-198.0 l-15.0 15.0" fill="#a7b256" /><text x="451.3636363636364" y="40.0" dy="0.35em" text-anchor="middle" font-size="10" fill="#ffffff">50</text><text x="451.3636363636364" y="258.0" dy="0.35em" text-anchor="middle" font-size="10" fill="#ffffff">20</text><text x="451.3636363636364" y="146.5" dy="0.35em" text-anchor="middle" font-size="10" >10</text><line x1="60" y1="40" x2="60" y2="370" stroke="#ffffff" stroke-width="1" /><line x1="60" y1="370" x2="520" y2="370" stroke="#ffffff" stroke-width="1" /><text x="116.81818181818181" y="375" text-anchor="end" font-size="10" transform="rotate(-90 116.81818181818181 375)" fill="#ffffff">A</text><text x="200.45454545454547" y="375" text-anchor="end" font-size="10" transform="rotate(-90 200.45454545454547 375)" fill="#ffffff">B</text><text x="284.0909090909091" y="375" text-anchor="end" font-size="10" transform="rotate(-90 284.0909090909091 375)" fill="#ffffff">C</text><text x="367.72727272727275" y="375" text-anchor="end" font-size="10" transform="rotate(-90 367.72727272727275 375)" fill="#ffffff">D</text><text x="451.3636363636364" y="375" text-anchor="end" font-size="10" transform="rotate(-90 451.3636363636364 375)" fill="#ffffff">E</text><text x="55" y="373.0" text-anchor="end" font-size="10" fill="#ffffff">0</text><line x1="60" y1="370.0" x2="57" y2="370.0" stroke="#ffffff" stroke-width="1" /><text x="55" y="307.0" text-anchor="end" font-size="10" fill="#ffffff">10</text><line x1="60" y1="304.0" x2="57" y2="304.0" stroke="#ffffff" stroke-width="1" /><text x="55" y="241.0" text-anchor="end" font-size="10" fill="#ffffff">20</text><line x1="60" y1="238.0" x2="57" y2="238.0" stroke="#ffffff" stroke-width="1" /><text x="55" y="175.0" text-anchor="end" font-size="10" fill="#ffffff">30</text><line x1="60" y1="172.0" x2="57" y2="172.0" stroke="#ffffff" stroke-width="1" /><text x="55" y="109.0" text-anchor="end" font-size="10" fill="#ffffff">40</text><line x1="60" y1="106.0" x2="57" y2="106.0" stroke="#ffffff" stroke-width="1" /><text x="55" y="43.0" text-anchor="end" font-size="10" fill="#ffffff">50</text><line x1="60" y1="40.0" x2="57" y2="40.0" stroke="#ffffff" stroke-width="1" /><text x="290.0" y="392.5" text-anchor="middle" font-size="12" fill="#ffffff">X Axis</text><text x="15.0" y="205.0" text-anchor="middle" font-size="12" transform="rotate(-90 15.0 205.0)" fill="#ffffff">Primary Y Axis</text></svg>