<svg xmlns='http://www.w3.org/2000/svg' width='471.46612038134214' height='560.2738039078147' viewBox="-46.762182332456874 -35.93585784336558 471.46612038134214 560.2738039078147"><rect x='-46.762182332456874' y='-35.93585784336558' width='471.46612038134214' height='560.2738039078147' rx='10' ry='10' fill='#ffffff' /><path d="M 250.44326608451507,394.7029104910325 Q255.98122754705335,169.18084710938578 166.6729407289879,86.86663547775673 L179.19405883457097,72.34918999250203 L105.57928639670482,118.56329628782834 L70.67770191951787,198.16705086470944 L83.19882002510093,183.64960537945473Q144.01877245294665,230.81915289061422 124.02118811667667,413.47337379308965 z M 334.7246513964073,382.1892682896612 Q239.93362901324005,214.8422054170467 326.0446989927103,147.5474553061129 L334.39211106309904,157.22575229628268 L311.1243880783077,104.15658257836199 L262.0478731197302,73.34717838147786 L270.3952851901189,83.02547537164764Q160.06637098675995,185.1577945829533 250.44326608451507,394.7029104910325 z " fill="rgba(37, 58, 94, 0.5)" />
<path d="M 19.036816060999875,103.59364611217471 Q200.00000000000006,245.1869340770649 326.94976761578636,150.17955309945464 L335.8035351362818,160.44493724758425 L311.1243880783077,104.15658257836199 L259.07088329198785,71.47827463046093 L267.9246508124833,81.74365877859054Q199.99999999999994,154.8130659229351 78.06193286430275,35.1577517913105 z " fill="rgba(232, 193, 112, 0.5)" />
<path d="M 308.9636218292928,66.23877311255532 C349.271893620669,98.88477751089918 321.94154697819164,67.1969670350629 278.21014357986957,106.68677502513947 L277.26906582811347,119.43287613755618 L298.34187090227886,65.45454165275856 L285.4250730099997,8.966666496611346 L284.4839952582436,21.712767609028056 C151.99353214596883,54.64926367831478 336.7241902639209,268.832792343122 393.93762924540414,72.51262479092938 z " fill="rgba(165, 48, 48, 0.5)" />
<circle cx="229.372919756542" cy="397.8313210413754" r="106.50662502307361" fill="#253a5e" />
<circle cx="48.549374462651315" cy="69.3756989517426" r="75.31155679510819" fill="#e8c170" /><circle cx="48.549374462651315" cy="69.3756989517426" r="53.253312511536805" fill="#ffffff" />
<circle cx="351.45062553734846" cy="69.37569895174235" r="53.253312511536805" fill="#a53030" /><circle cx="351.45062553734846" cy="69.37569895174235" r="37.655778397554094" fill="#ffffff" />
<text x="229.372919756542" y="397.8313210413754" font-size="10" fill="white" text-anchor="middle" dominant-baseline="middle">Bubble 0</text>
<text x="48.549374462651315" y="69.3756989517426" font-size="10" fill="black" text-anchor="middle" dominant-baseline="middle">Bubble 1</text>
<text x="351.45062553734846" y="69.37569895174235" font-size="10" fill="black" text-anchor="middle" dominant-baseline="middle">Bubble 2</text>
<text x="200.0" y="-15.935857843365582" font-size="16" fill="#000000" text-anchor="middle" dominant-baseline="text-top">Bubble and Arrow Graph</text></svg>