<svg xmlns="http://www.w3.org/2000/svg" width="448.1250572053908" height="522.6694740857683" viewBox="75.5049927103032 95.20467357047373 428.1250572053908 502.6694740857683"><rect x='75.5049927103032' y='95.20467357047373' width='428.1250572053908' height='502.6694740857683' rx='10' ry='10' fill='#ffffff' /><path d="M 335.6367209407746,437.5520228190683 Q339.54913190343086,278.2271522753155 276.45538833611926,220.07452226001362 L285.30119921298717,209.8183633375495 L233.29447351660747,242.46730416573678 L208.63750494679877,298.7050739989051 L217.48331582366666,288.448915076441Q260.45086809656914,321.7728477246845 246.32314822832632,450.8128168664586 z" fill="rgba(37, 58, 94, 0.5)" /><path d="M 395.1791027490734,428.7114934541415 Q328.21196373194635,310.48559250122224 389.0469652885155,262.9437813412448 L394.94417253976076,269.78122062288753 L378.5061934932216,232.289374067442 L343.83504302896847,210.52341351531715 L349.73225028021375,217.36085279695988Q271.78803626805365,289.51440749877776 335.6367209407746,437.5520228190683 z" fill="rgba(37, 58, 94, 0.5)" /><path d="M 172.15469997951033,231.89167559725772 Q300.0,331.9232731119263 389.6863703163099,264.8032829522823 L395.9413031724369,272.0554824752836 L378.5061934932216,232.289374067442 L341.7318850860028,209.20308660927245 L347.98681794212985,216.45528613227373Q300.0,268.0767268880737 213.85425235369036,183.54367877724914 z" fill="rgba(232, 193, 112, 0.5)" /><path d="M 437.01137356479586,209.9338253358629 C396.59171961873506,348.62839389099634 266.0848071296567,197.3138729725888 359.6855199252055,174.04518301065153 L360.35036436978834,165.04042809123268 L369.4757116691544,204.94749200149153 L354.58837918340356,243.08163739286277 L355.2532236279864,234.07688247344393 C386.14820605524153,206.17846556702685 405.4563122131731,228.56499496541153 376.97967410200346,205.5015290386439 z" fill="rgba(165, 48, 48, 0.5)" /><circle cx="320.75112548869987" cy="439.76215516030004" r="75.24387631704418" fill="#253a5e" /><circle cx="193.00447616660034" cy="207.71767718725343" r="53.20545518654381" fill="#e8c170" /><circle cx="193.00447616660034" cy="207.71767718725343" r="37.62193815852209" fill="#ffffff" /><circle cx="406.99552383339966" cy="207.7176771872534" r="37.62193815852209" fill="#a53030" /><circle cx="406.99552383339966" cy="207.7176771872534" r="26.602727593271904" fill="#ffffff" /><text x="320.75112548869987" y="439.76215516030004" text-anchor="middle" dominant-baseline="middle" fill="white" font-size="10">Bubble 0</text><text x="193.00447616660034" y="207.71767718725343" text-anchor="middle" dominant-baseline="middle" fill="black" font-size="10">Bubble 1</text><text x="406.99552383339966" y="207.7176771872534" text-anchor="middle" dominant-baseline="middle" fill="black" font-size="10">Bubble 2</text></svg>