<svg xmlns="http://www.w3.org/2000/svg" width="448.1250572053908" height="522.6694740857683" viewBox="75.5049927103032 95.20467357047373 428.1250572053908 502.6694740857683"><rect x='75.5049927103032' y='95.20467357047373' width='428.1250572053908' height='502.6694740857683' rx='10' ry='10' fill='#ffffff' /><path d="M 290.97993458455045,444.18241984276347 Q319.77456595171543,289.1135761376578 255.61002292158804,231.9049210140428 L260.032928360022,226.77684155281077 L233.29447351660747,242.46730416573678 L221.7010812269278,271.22019688348854 L226.12398666536177,266.0921174222565Q280.22543404828457,310.8864238623422 246.3231482283263,450.81281686645855 z" fill="rgba(37, 58, 94, 0.5)" /><path d="M 320.75112548869987,439.76215516030004 Q314.10598186597315,305.2427962506111 380.7623409684296,250.21632125592612 L383.7109445940522,253.63504089674748 L378.5061934932216,232.289374067442 L358.1563798386561,224.00613734296226 L361.1049834642787,227.42485698378363Q285.89401813402685,294.7572037493889 290.97993458455045,444.18241984276347 z" fill="rgba(37, 58, 94, 0.5)" /><path d="M 193.00447616660034,207.71767718725343 Q300.0,326.6027275932719 387.8230075124618,259.38429813814224 L393.03545155923433,265.4277977406433 L378.5061934932216,232.289374067442 L347.86093648720595,213.05080118563404 L353.0733805339785,219.09430078813511Q300.0,273.3972724067281 227.75410314508372,167.4276798372463 z" fill="rgba(232, 193, 112, 0.5)" /><path d="M 425.7554299155223,209.10276978013434 C396.59171961873506,348.62839389099634 266.0848071296567,197.3138729725888 360.8879495924664,185.45126415569752 L361.30347737033065,179.8232923310607 L369.4757116691544,204.94749200149153 L357.70223662884024,228.59904814457957 L358.1177644067045,222.97107631994277 C341.1244314581472,202.85424334411258 402.1320899902588,273.58876956250583 388.235617751277,206.33258459437246 z" fill="rgba(165, 48, 48, 0.5)" /><circle cx="320.75112548869987" cy="439.76215516030004" r="75.24387631704418" fill="#253a5e" /><circle cx="193.00447616660034" cy="207.71767718725343" r="53.20545518654381" fill="#e8c170" /><circle cx="193.00447616660034" cy="207.71767718725343" r="37.62193815852209" fill="#ffffff" /><circle cx="406.99552383339966" cy="207.7176771872534" r="37.62193815852209" fill="#a53030" /><circle cx="406.99552383339966" cy="207.7176771872534" r="26.602727593271904" fill="#ffffff" /><text x="320.75112548869987" y="439.76215516030004" text-anchor="middle" dominant-baseline="middle" fill="white" font-size="10">Bubble 0</text><text x="193.00447616660034" y="207.71767718725343" text-anchor="middle" dominant-baseline="middle" fill="black" font-size="10">Bubble 1</text><text x="406.99552383339966" y="207.7176771872534" text-anchor="middle" dominant-baseline="middle" fill="black" font-size="10">Bubble 2</text></svg>