<svg xmlns="http://www.w3.org/2000/svg" width="600" height="400"><rect x='0' y='0' width='600' height='400' rx='10' ry='10' fill='#404040' /><rect x="485" y="10" width="10" height="10" fill="#253a5e" /><text x="500" y="16.666666666666664" font-size="10" alignment-baseline="middle" fill="#ffffff">Series 1</text><rect x="485" y="30" width="10" height="10" fill="#e8c170" /><text x="500" y="36.666666666666664" font-size="10" alignment-baseline="middle" fill="#ffffff">Series 2</text><line x1="485" y1="55.0" x2="495" y2="55.0" stroke="#a53030" stroke-width="1" /><text x="500" y="56.666666666666664" font-size="10" alignment-baseline="middle" fill="#ffffff">Series 3</text><circle cx="490.0" cy="75.0" r="5" fill="#75a743"  /><text x="500" y="76.66666666666667" font-size="10" alignment-baseline="middle" fill="#ffffff">Series 4</text><rect x="40.0" y="310.0" width="30" height="60.0" fill="#253a5e" /><rect x="70.0" y="280.0" width="30" height="90.0" fill="#e8c170" /><circle cx="69.0" cy="160.0" r="5" fill="#75a743"  /><rect x="128.0" y="250.0" width="30" height="120.0" fill="#253a5e" /><rect x="158.0" y="220.0" width="30" height="150.0" fill="#e8c170" /><line x1="69.0" y1="340.0" x2="157.0" y2="160.0" stroke="#a53030" stroke-width="1" /><circle cx="157.0" cy="34.0" r="5" fill="#75a743"  /><rect x="216.0" y="190.0" width="30" height="180.0" fill="#253a5e" /><rect x="246.0" y="340.0" width="30" height="30.0" fill="#e8c170" /><line x1="157.0" y1="160.0" x2="245.0" y2="310.0" stroke="#a53030" stroke-width="1" /><circle cx="245.0" cy="220.0" r="5" fill="#75a743"  /><rect x="304.0" y="130.0" width="30" height="240.0" fill="#253a5e" /><rect x="334.0" y="106.0" width="30" height="264.0" fill="#e8c170" /><line x1="245.0" y1="310.0" x2="333.0" y2="172.0" stroke="#a53030" stroke-width="1" /><circle cx="333.0" cy="340.0" r="5" fill="#75a743"  /><rect x="392.0" y="70.0" width="30" height="300.0" fill="#253a5e" /><rect x="422.0" y="34.0" width="30" height="336.0" fill="#e8c170" /><line x1="333.0" y1="172.0" x2="421.0" y2="130.0" stroke="#a53030" stroke-width="1" /><circle cx="421.0" cy="106.0" r="5" fill="#75a743"  /><line x1="40" y1="10" x2="40" y2="370" stroke="#ffffff" stroke-width="1" /><line x1="40" y1="370" x2="480" y2="370" stroke="#ffffff" stroke-width="1" /><text x="69.0" y="375" text-anchor="end" font-size="10" transform="rotate(-90 69.0 375)">A</text><text x="157.0" y="375" text-anchor="end" font-size="10" transform="rotate(-90 157.0 375)">B</text><text x="245.0" y="375" text-anchor="end" font-size="10" transform="rotate(-90 245.0 375)">C</text><text x="333.0" y="375" text-anchor="end" font-size="10" transform="rotate(-90 333.0 375)">D</text><text x="421.0" y="375" text-anchor="end" font-size="10" transform="rotate(-90 421.0 375)">E</text><text x="35" y="373.0" text-anchor="end" font-size="10" fill="#ffffff">0</text><line x1="40" y1="370.0" x2="37" y2="370.0" stroke="#ffffff" stroke-width="1" /><text x="35" y="301.0" text-anchor="end" font-size="10" fill="#ffffff">12</text><line x1="40" y1="298.0" x2="37" y2="298.0" stroke="#ffffff" stroke-width="1" /><text x="35" y="229.0" text-anchor="end" font-size="10" fill="#ffffff">24</text><line x1="40" y1="226.0" x2="37" y2="226.0" stroke="#ffffff" stroke-width="1" /><text x="35" y="157.0" text-anchor="end" font-size="10" fill="#ffffff">36</text><line x1="40" y1="154.0" x2="37" y2="154.0" stroke="#ffffff" stroke-width="1" /><text x="35" y="85.0" text-anchor="end" font-size="10" fill="#ffffff">48</text><line x1="40" y1="82.0" x2="37" y2="82.0" stroke="#ffffff" stroke-width="1" /><text x="35" y="13.0" text-anchor="end" font-size="10" fill="#ffffff">60</text><line x1="40" y1="10.0" x2="37" y2="10.0" stroke="#ffffff" stroke-width="1" /><text x="260.0" y="392.5" text-anchor="middle" font-size="12" fill="#ffffff">X Axis</text><text x="10.0" y="190.0" text-anchor="middle" font-size="12" transform="rotate(-90 10.0 190.0)" fill="#ffffff">Primary Y Axis</text></svg>