<svg xmlns="http://www.w3.org/2000/svg" width="600" height="400">
<defs>
    <linearGradient id="legend_grad" x1="0%" y1="0%" x2="0%" y2="100%">
        <stop offset="0%" style="stop-color:#e8c170" />
        <stop offset="100%" style="stop-color:#253a5e" />
    </linearGradient>
</defs><rect x='0' y='0' width='600' height='400' rx='10' ry='10' fill='#ffffff' /><path d="M200.0 5.0 h170.0 l15.0 15.0 l-15.0 15.0 h-170.0 l15.0 -15.0" fill="#253a5e" /><text x="200.0" y="20.0" dy="0.35em" font-size="10" text-anchor="end" fill="#000000">Series 1</text><text x="390.0" y="20.0" dy="0.35em" font-size="10" text-anchor="start" fill="#000000">Series 2</text><rect x="555.0" y="40" width="30" height="330" fill="url(#legend_grad)" /><text x="550.0" y="205.0" text-anchor="middle" font-size="10" transform="rotate(-90 550.0 205.0)" fill="#000000">Color Series</text><text x="590.0" y="40" dy="0.35em" text-anchor="start" font-size="10" fill="#000000">36</text><text x="590.0" y="370" dy="0.35em" text-anchor="start" font-size="10" fill="#000000">-24</text><path d="M76.36363636363637 260.0 v55.0 l15.0 -15.0 l15.0 15.0 v-55.0 l-15.0 -15.0" fill="#525a62" /><text x="91.36363636363637" y="315.0" dy="0.35em" text-anchor="middle" font-size="10" fill="#000000">10</text><text x="91.36363636363637" y="240.0" dy="0.35em" text-anchor="middle" font-size="10" fill="#000000">20</text><text x="91.36363636363637" y="280.0" dy="0.35em" text-anchor="middle" font-size="10" fill="white">-10</text><path d="M169.0909090909091 205.0 v55.0 l15.0 -15.0 l15.0 15.0 v-55.0 l-15.0 -15.0" fill="#32435f" /><text x="184.0909090909091" y="260.0" dy="0.35em" text-anchor="middle" font-size="10" fill="#000000">20</text><text x="184.0909090909091" y="185.0" dy="0.35em" text-anchor="middle" font-size="10" fill="#000000">30</text><text x="184.0909090909091" y="225.0" dy="0.35em" text-anchor="middle" font-size="10" fill="white">-20</text><path d="M261.81818181818187 150.0 v55.0 l15.0 -15.0 l15.0 15.0 v-55.0 l-15.0 -15.0" fill="#d4b46e" /><text x="276.81818181818187" y="205.0" dy="0.35em" text-anchor="middle" font-size="10" fill="#000000">30</text><text x="276.81818181818187" y="130.0" dy="0.35em" text-anchor="middle" font-size="10" fill="#000000">40</text><text x="276.81818181818187" y="170.0" dy="0.35em" text-anchor="middle" font-size="10" >30</text><path d="M354.54545454545456 150.0 v55.0 l15.0 15.0 l15.0 -15.0 v-55.0 l-15.0 15.0" fill="#b49d6b" /><text x="369.54545454545456" y="150.0" dy="0.35em" text-anchor="middle" font-size="10" fill="#000000">40</text><text x="369.54545454545456" y="225.0" dy="0.35em" text-anchor="middle" font-size="10" fill="#000000">30</text><text x="369.54545454545456" y="185.0" dy="0.35em" text-anchor="middle" font-size="10" >20</text><path d="M447.2727272727273 95.0 v165.0 l15.0 15.0 l15.0 -15.0 v-165.0 l-15.0 15.0" fill="#938668" /><text x="462.2727272727273" y="95.0" dy="0.35em" text-anchor="middle" font-size="10" fill="#000000">50</text><text x="462.2727272727273" y="280.0" dy="0.35em" text-anchor="middle" font-size="10" fill="#000000">20</text><text x="462.2727272727273" y="185.0" dy="0.35em" text-anchor="middle" font-size="10" >10</text><line x1="30" y1="40" x2="30" y2="370" stroke="#000000" stroke-width="1" /><line x1="30" y1="370" x2="540" y2="370" stroke="#000000" stroke-width="1" /><text x="91.36363636363637" y="375" text-anchor="end" font-size="10" transform="rotate(-90 91.36363636363637 375)" fill="#000000">A</text><text x="184.0909090909091" y="375" text-anchor="end" font-size="10" transform="rotate(-90 184.0909090909091 375)" fill="#000000">B</text><text x="276.81818181818187" y="375" text-anchor="end" font-size="10" transform="rotate(-90 276.81818181818187 375)" fill="#000000">C</text><text x="369.54545454545456" y="375" text-anchor="end" font-size="10" transform="rotate(-90 369.54545454545456 375)" fill="#000000">D</text><text x="462.2727272727273" y="375" text-anchor="end" font-size="10" transform="rotate(-90 462.2727272727273 375)" fill="#000000">E</text><text x="25" y="373.0" text-anchor="end" font-size="10" fill="#000000">0</text><line x1="30" y1="370.0" x2="27" y2="370.0" stroke="#000000" stroke-width="1" /><text x="25" y="307.0" text-anchor="end" font-size="10" fill="#000000">12</text><line x1="30" y1="304.0" x2="27" y2="304.0" stroke="#000000" stroke-width="1" /><text x="25" y="241.0" text-anchor="end" font-size="10" fill="#000000">24</text><line x1="30" y1="238.0" x2="27" y2="238.0" stroke="#000000" stroke-width="1" /><text x="25" y="175.0" text-anchor="end" font-size="10" fill="#000000">36</text><line x1="30" y1="172.0" x2="27" y2="172.0" stroke="#000000" stroke-width="1" /><text x="25" y="109.0" text-anchor="end" font-size="10" fill="#000000">48</text><line x1="30" y1="106.0" x2="27" y2="106.0" stroke="#000000" stroke-width="1" /><text x="25" y="43.0" text-anchor="end" font-size="10" fill="#000000">60</text><line x1="30" y1="40.0" x2="27" y2="40.0" stroke="#000000" stroke-width="1" /><text x="285.0" y="392.5" text-anchor="middle" font-size="12" fill="#000000">X Axis</text><text x="7.5" y="205.0" text-anchor="middle" font-size="12" transform="rotate(-90 7.5 205.0)" fill="#000000">Primary Y Axis</text></svg>