<svg xmlns='http://www.w3.org/2000/svg' width='428.1250572053908' height='502.6694740857683' viewBox="75.5049927103032 95.20467357047373 428.1250572053908 502.6694740857683"><rect x='75.5049927103032' y='95.20467357047373' width='428.1250572053908' height='502.6694740857683' rx='10' ry='10' fill='#ffffff' /><path d="M 347.71443198871305,484.1700488835066 Q352.95280583067796,270.848073713443 268.47583777969,192.9868217076459 L280.31959978492,179.25472783221232 L210.68717259501184,222.96878528545116 L177.6736624062599,298.26620808597 L189.5174244114899,284.5341142105364Q247.047194169322,329.151926286557 228.1314210282085,501.9250846720709 z M 427.43643929571607,472.33335835779707 Q337.7733357396471,314.0392852387404 419.22604709118366,250.3849855352707 L427.1218884280037,259.53971478555974 L405.11288163550233,209.34143291854718 L358.6912635088969,180.19872794972133 L366.5871048457169,189.35345720001038Q262.2266642603529,285.9607147612596 347.7144319887131,484.1700488835066 z " fill="rgba(37, 58, 94, 0.5)" />
<path d="M 128.82639839276754,208.80894967916163 Q300.0,342.7424522667941 420.08215413208234,252.87469448745526 L428.45695856074,262.5847511866646 L405.11288163550233,209.34143291854718 L355.87532017903976,178.43092646018368 L364.25012460769744,188.14098315939304Q300.0,257.2575477332059 184.65842791715238,144.07523835109936 z " fill="rgba(232, 193, 112, 0.5)" />
<path d="M 403.069006560891,173.474866747238 C441.1967179931725,204.35481718419408 415.3448636759764,174.38122516326297 373.9792021083017,211.73474930725692 L373.08903392793394,223.79132339250162 L393.02186148985373,172.7330599302649 L380.80382482445435,119.30101465371416 L379.9136566440866,131.35758873895887 C254.5905425393803,162.5123160916931 429.32780892160264,365.1091383207902 483.446167129189,179.40932128302293 z " fill="rgba(165, 48, 48, 0.5)" />
<circle cx="327.7839301619623" cy="487.129221514934" r="100.74492614130799" fill="#253a5e" />
<circle cx="156.74241315495996" cy="176.4420940151305" r="71.23742044465676" fill="#e8c170" /><circle cx="156.74241315495996" cy="176.4420940151305" r="50.37246307065399" fill="#ffffff" />
<circle cx="443.25758684504" cy="176.44209401513046" r="50.37246307065399" fill="#a53030" /><circle cx="443.25758684504" cy="176.44209401513046" r="35.61871022232838" fill="#ffffff" />
<text x="327.7839301619623" y="487.129221514934" text-anchor="middle" dominant-baseline="middle" fill="white" font-size="10">Bubble 0</text>
<text x="156.74241315495996" y="176.4420940151305" text-anchor="middle" dominant-baseline="middle" fill="black" font-size="10">Bubble 1</text>
<text x="443.25758684504" y="176.44209401513046" text-anchor="middle" dominant-baseline="middle" fill="black" font-size="10">Bubble 2</text></svg>